<svg width="434.20000000000005" height="40.78266818259747" viewBox="0 0 370.11111111111114 34.76305535499058" class="css-1j8o68f">
  <defs id="SvgjsDefs1460"></defs>
  <g id="SvgjsG1461" featurekey="symbolFeature-0" transform="matrix(0.04592213389034422,0,0,0.04592213389034422,0,-2.06649602506549)" fill="#ffffff">
    <defs xmlns="http://www.w3.org/2000/svg">
    </defs>
    <g xmlns="http://www.w3.org/2000/svg">
      <path class="fil0" d="M468 45c135,0 258,71 327,186 142,238 -21,571 -327,571 -138,0 -264,-75 -331,-196l316 -183c-105,-61 -211,-121 -316,-182 67,-121 193,-196 331,-196zm-147 120c-5,0 -9,5 -9,10 0,6 4,10 9,10 6,0 10,-4 10,-10 0,-5 -4,-10 -10,-10zm0 -16c15,0 27,12 27,26 0,15 -12,26 -27,26 -14,0 -26,-11 -26,-26 0,-5 2,-11 5,-15 -40,25 -73,60 -98,101l26 15c7,-7 16,-11 27,-11 21,0 38,17 38,38 0,4 0,7 -1,10l169 97 0 -299c-51,1 -99,15 -142,38 1,0 1,0 2,0zm-267 470c-72,-119 -72,-272 0,-391 113,65 226,130 339,195l-339 196zm194 -226c14,0 26,11 26,26 0,14 -12,26 -26,26 -15,0 -27,-12 -27,-26 0,-15 12,-26 27,-26zm0 16c-6,0 -10,4 -10,10 0,5 4,10 10,10 5,0 10,-5 10,-10 0,-6 -5,-10 -10,-10zm-94 73c0,10 0,19 -24,16 -21,-3 -32,-18 -35,-35 -3,-13 -1,-27 5,-39 8,-16 22,-27 43,-24 24,3 22,12 19,22 0,2 -1,5 14,7l7 1 -6 49 -8 -1c-14,-2 -14,1 -15,4zm-22 1c7,1 7,0 7,-2 1,-9 1,-20 25,-18l3 -21c-24,-4 -21,-14 -19,-24 0,-1 0,-3 -7,-4 -13,-1 -23,6 -28,17 -4,9 -5,20 -4,29 3,12 10,21 23,23zm63 -157c-7,10 -18,16 -30,16 -28,0 -47,-29 -36,-54l-25 -14c-51,92 -51,206 0,299l259 -150 -168 -97zm-122 265l18 -10c-54,-98 -54,-218 0,-315l-18 -10c-57,103 -57,231 0,335zm314 -64c21,0 39,17 39,38 0,21 -18,39 -39,39 -21,0 -38,-18 -38,-39 0,-21 17,-38 38,-38zm176 120c15,0 27,12 27,26 0,15 -12,27 -27,27 -14,0 -26,-12 -26,-27 0,-14 12,-26 26,-26zm-63 -344c14,0 26,12 26,27 0,14 -12,26 -26,26 -11,0 -20,-6 -24,-15l0 69 259 -149c-55,-91 -152,-148 -259,-150l0 36c7,-8 18,-14 30,-14 21,0 39,17 39,39 0,21 -18,38 -39,38 -12,0 -23,-5 -30,-14l0 123c4,-9 13,-16 24,-16zm0 17c-6,0 -10,4 -10,10 0,5 4,9 10,9 5,0 10,-4 10,-9 0,-6 -5,-10 -10,-10zm202 30c14,0 26,11 26,26 0,14 -12,26 -26,26 -15,0 -27,-12 -27,-26 0,-15 12,-26 27,-26zm0 16c-6,0 -10,4 -10,10 0,5 4,10 10,10 5,0 9,-5 9,-10 0,-6 -4,-10 -9,-10zm-139 297c-5,0 -10,5 -10,10 0,6 5,10 10,10 6,0 10,-4 10,-10 0,-5 -4,-10 -10,-10zm-243 28c-9,-3 -18,-5 -9,-28 8,-19 25,-26 43,-24 13,0 26,6 36,14 14,12 21,29 13,48 -9,22 -18,18 -26,14 -2,-1 -4,-2 -8,5 29,9 60,15 92,16l0 -300 -259 150c29,48 71,87 120,114 2,-7 0,-8 -2,-9zm289 -413c-7,6 -14,13 -29,-6 -12,-17 -10,-35 0,-50 7,-11 19,-19 31,-24 17,-5 35,-3 48,13 15,19 7,24 -2,30 -2,1 -4,3 5,14l4 6 -39 31 -5 -6c-9,-12 -11,-10 -13,-8zm-17 -16c5,7 6,6 7,5 7,-7 14,-14 30,4l17 -13c-13,-19 -5,-25 3,-30 1,-1 3,-2 -2,-8 -8,-10 -20,-11 -31,-8 -9,4 -18,10 -24,19 -6,9 -8,21 0,31zm-169 9c10,3 19,6 9,28 -7,19 -25,26 -42,25 -13,-1 -27,-6 -36,-15 -14,-12 -21,-29 -13,-48 9,-22 17,-18 26,-13 2,1 5,2 11,-12l2 -7 47 20 -3 7c-6,13 -3,14 -1,15zm-4 22c3,-7 1,-7 0,-8 -9,-3 -19,-6 -12,-28l-19 -8c-10,21 -19,17 -28,12 -1,-1 -2,-1 -5,6 -5,12 0,23 8,31 8,6 18,10 28,11 11,1 23,-4 28,-16zm156 237c9,-5 17,-9 27,13 8,19 0,36 -13,48 -10,9 -23,14 -36,15 -18,1 -35,-6 -43,-25 -9,-22 0,-25 9,-28 3,-1 5,-1 0,-15l-3 -7 46 -19 3 7c6,13 8,12 10,11zm13 19c-3,-7 -4,-6 -6,-6 -8,5 -17,9 -28,-12l-19 8c8,23 -2,26 -11,29 -2,0 -3,0 0,8 5,11 16,16 28,15 9,-1 20,-5 27,-11 9,-8 14,-19 9,-31zm-263 120c-3,7 -1,8 0,8 9,3 19,6 11,28l19 8c11,-21 20,-16 28,-12 2,1 3,2 6,-5 5,-12 0,-24 -9,-31 -7,-7 -17,-11 -27,-12 -12,0 -23,4 -28,16zm313 -233c22,0 39,17 39,38 0,22 -17,39 -38,39l104 60c50,-93 50,-207 0,-299l-260 149 122 70c-4,-5 -5,-12 -5,-19 0,-21 17,-38 38,-38zm-162 -340c112,2 214,62 272,157l18 -10c-61,-102 -171,-165 -290,-168l0 21zm298 160l-18 10c53,97 53,217 0,315l18 10c57,-104 57,-232 0,-335zm-8 348l-18 -10c-58,95 -160,154 -272,157l0 21c119,-3 229,-66 290,-168zm-305 168l0 -21c-112,-3 -214,-62 -272,-157l-18 10c61,102 170,165 290,168zm-290 -529l18 10c58,-95 160,-155 272,-157l0 -21c-120,3 -229,66 -290,168zm564 343l-259 -150 0 300c107,-3 204,-59 259,-150z" style="fill: #ffffff; fill-rule: nonzero;"></path>
    </g>
  </g>
  <g id="SvgjsG1462" featurekey="nameFeature-0" transform="matrix(0.9248747150516268,0,0,0.9248747150516268,56.705940677756125,-5.664107960260662)" fill="#ffffff">
    <path d="M35.996 40 l-5.8398 0 l-1.8555 -21.27 l-7.1484 21.27 l-3.7891 0 l-7.1484 -21.27 l-1.875 21.27 l-5.8594 0 l2.3633 -28.223 l8.3594 0 l6.0156 17.715 l6.0938 -17.715 l8.3594 0 z M54.9658203125 34.5508 c0 2.4609 0.23438 4.0234 0.48828 4.9023 l0 0.54688 l-5.2539 0 l-0.44922 -2.1875 c-1.5039 1.8164 -4.1016 2.5781 -6.4453 2.5781 c-3.1641 0 -6.25 -1.4063 -6.25 -5.5859 c0 -4.1602 3.1055 -5.5664 7.3047 -6.4844 l3.3008 -0.74219 c1.4258 -0.33203 1.9336 -0.82031 1.9336 -1.6406 c0 -1.9727 -1.7969 -2.5195 -3.3789 -2.5195 c-2.0313 0 -3.5742 0.80078 -3.9258 3.0664 l-4.9805 -0.89844 c0.83984 -4.1602 3.8867 -6.0547 9.2188 -6.0547 c4.0234 0 8.4375 1.1914 8.4375 7.2461 l0 7.7734 z M45.0635203125 36.582 c2.6758 0 4.8242 -1.7773 4.8242 -5.7617 l-4.7656 1.3477 c-1.5625 0.37109 -2.6953 0.91797 -2.6953 2.2656 c0 1.4453 1.1914 2.1484 2.6367 2.1484 z M81.337671875 19.531 c4.2969 0 7.0703 2.1875 7.0703 6.3086 l0 14.16 l-5.625 0 l0 -12.559 c0 -2.3633 -1.4844 -3.3984 -3.1641 -3.3984 c-2.0117 0 -3.7891 1.1523 -3.7891 4.6289 l0 11.328 l-5.6836 0 l0 -12.5 c0 -2.4023 -1.4453 -3.457 -3.2227 -3.457 c-1.9531 0 -3.7695 1.1523 -3.7695 4.9219 l0 11.035 l-5.6055 0 l0 -20.078 l5.6055 0 l0 2.3633 c1.3281 -1.7773 3.3594 -2.7539 5.8203 -2.7539 c2.9102 0 5.0977 1.0547 6.1523 3.0078 c1.4063 -2.0117 3.5547 -3.0078 6.2109 -3.0078 z M114.7800546875 19.531 c4.2969 0 7.0703 2.1875 7.0703 6.3086 l0 14.16 l-5.625 0 l0 -12.559 c0 -2.3633 -1.4844 -3.3984 -3.1641 -3.3984 c-2.0117 0 -3.7891 1.1523 -3.7891 4.6289 l0 11.328 l-5.6836 0 l0 -12.5 c0 -2.4023 -1.4453 -3.457 -3.2227 -3.457 c-1.9531 0 -3.7695 1.1523 -3.7695 4.9219 l0 11.035 l-5.6055 0 l0 -20.078 l5.6055 0 l0 2.3633 c1.3281 -1.7773 3.3594 -2.7539 5.8203 -2.7539 c2.9102 0 5.0977 1.0547 6.1523 3.0078 c1.4063 -2.0117 3.5547 -3.0078 6.2109 -3.0078 z M140.8984375 34.5508 c0 2.4609 0.23438 4.0234 0.48828 4.9023 l0 0.54688 l-5.2539 0 l-0.44922 -2.1875 c-1.5039 1.8164 -4.1016 2.5781 -6.4453 2.5781 c-3.1641 0 -6.25 -1.4063 -6.25 -5.5859 c0 -4.1602 3.1055 -5.5664 7.3047 -6.4844 l3.3008 -0.74219 c1.4258 -0.33203 1.9336 -0.82031 1.9336 -1.6406 c0 -1.9727 -1.7969 -2.5195 -3.3789 -2.5195 c-2.0313 0 -3.5742 0.80078 -3.9258 3.0664 l-4.9805 -0.89844 c0.83984 -4.1602 3.8867 -6.0547 9.2188 -6.0547 c4.0234 0 8.4375 1.1914 8.4375 7.2461 l0 7.7734 z M130.9961375 36.582 c2.6758 0 4.8242 -1.7773 4.8242 -5.7617 l-4.7656 1.3477 c-1.5625 0.37109 -2.6953 0.91797 -2.6953 2.2656 c0 1.4453 1.1914 2.1484 2.6367 2.1484 z M184.072171875 40 l-5.8398 0 l-1.8555 -21.27 l-7.1484 21.27 l-3.7891 0 l-7.1484 -21.27 l-1.875 21.27 l-5.8594 0 l2.3633 -28.223 l8.3594 0 l6.0156 17.715 l6.0938 -17.715 l8.3594 0 z M189.4482921875 16.914 c-1.7773 0 -3.2617 -1.4453 -3.2617 -3.2422 c0 -1.7773 1.4844 -3.2227 3.2617 -3.2227 c1.7383 0 3.2227 1.4453 3.2227 3.2227 c0 1.7969 -1.4844 3.2422 -3.2227 3.2422 z M186.5771921875 40 l0 -20.078 l5.6641 0 l0 20.078 l-5.6641 0 z M211.640625 34.5508 c0 2.4609 0.23438 4.0234 0.48828 4.9023 l0 0.54688 l-5.2539 0 l-0.44922 -2.1875 c-1.5039 1.8164 -4.1016 2.5781 -6.4453 2.5781 c-3.1641 0 -6.25 -1.4063 -6.25 -5.5859 c0 -4.1602 3.1055 -5.5664 7.3047 -6.4844 l3.3008 -0.74219 c1.4258 -0.33203 1.9336 -0.82031 1.9336 -1.6406 c0 -1.9727 -1.7969 -2.5195 -3.3789 -2.5195 c-2.0313 0 -3.5742 0.80078 -3.9258 3.0664 l-4.9805 -0.89844 c0.83984 -4.1602 3.8867 -6.0547 9.2188 -6.0547 c4.0234 0 8.4375 1.1914 8.4375 7.2461 l0 7.7734 z M201.738325 36.582 c2.6758 0 4.8242 -1.7773 4.8242 -5.7617 l-4.7656 1.3477 c-1.5625 0.37109 -2.6953 0.91797 -2.6953 2.2656 c0 1.4453 1.1914 2.1484 2.6367 2.1484 z M234.970359375 40.39063 c-8.3008 0 -14.434 -5.6445 -14.434 -14.512 s6.1328 -14.492 14.434 -14.492 c6.2891 0 11.328 3.2227 13.34 8.5742 l-5.4688 1.9922 c-1.25 -3.2813 -4.2383 -5.1758 -7.8711 -5.1758 c-4.8633 0 -8.5938 3.3984 -8.5938 9.1016 s3.7305 9.1211 8.5938 9.1211 c3.6328 0 6.6211 -1.9141 7.8711 -5.1953 l5.4688 1.9922 c-2.0117 5.3516 -7.0508 8.5938 -13.34 8.5938 z M262.7881484375 19.922 l5.625 0 l0 20.078 l-5.332 0 l-0.13672 -2.4219 c-1.4063 1.7773 -3.6328 2.8125 -6.3867 2.8125 c-4.8242 0 -7.4805 -2.5195 -7.4805 -6.9531 l0 -13.516 l5.6445 0 l0 12.305 c0 2.6563 1.6602 3.6328 3.6133 3.6328 c2.3242 0 4.4336 -1.1719 4.4531 -4.8633 l0 -11.074 z M280.4295 40.37109 c-6.3086 0 -10.762 -4.1992 -10.762 -10.43 c0 -6.25 4.4531 -10.41 10.762 -10.41 c5.0781 0 8.8867 2.6367 9.8633 7.3828 l-5.1953 0.56641 c-0.625 -2.4023 -2.3633 -3.5156 -4.7266 -3.5156 c-3.0273 0 -5.0781 2.3828 -5.0781 5.9766 c0 3.5742 2.0508 5.9766 5.0781 5.9766 c2.3633 0 4.1016 -1.1328 4.7266 -3.5156 l5.1953 0.56641 c-0.97656 4.7461 -4.8828 7.4023 -9.8633 7.4023 z M294.2822765625 16.914 c-1.7773 0 -3.2617 -1.4453 -3.2617 -3.2422 c0 -1.7773 1.4844 -3.2227 3.2617 -3.2227 c1.7383 0 3.2227 1.4453 3.2227 3.2227 c0 1.7969 -1.4844 3.2422 -3.2227 3.2422 z M291.4111765625 40 l0 -20.078 l5.6641 0 l0 20.078 l-5.6641 0 z M311.865609375 19.531 c4.8242 0 7.4805 2.5 7.4805 6.9531 l0 13.516 l-5.6445 0 l0 -12.305 c0 -2.6758 -1.6602 -3.6523 -3.5938 -3.6523 c-2.3242 0 -4.4336 1.1719 -4.4727 4.8828 l0 11.074 l-5.625 0 l0 -20.078 l5.625 0 l0 2.2266 c1.4063 -1.6602 3.5742 -2.6172 6.2305 -2.6172 z M338.3740234375 34.5508 c0 2.4609 0.23438 4.0234 0.48828 4.9023 l0 0.54688 l-5.2539 0 l-0.44922 -2.1875 c-1.5039 1.8164 -4.1016 2.5781 -6.4453 2.5781 c-3.1641 0 -6.25 -1.4063 -6.25 -5.5859 c0 -4.1602 3.1055 -5.5664 7.3047 -6.4844 l3.3008 -0.74219 c1.4258 -0.33203 1.9336 -0.82031 1.9336 -1.6406 c0 -1.9727 -1.7969 -2.5195 -3.3789 -2.5195 c-2.0313 0 -3.5742 0.80078 -3.9258 3.0664 l-4.9805 -0.89844 c0.83984 -4.1602 3.8867 -6.0547 9.2188 -6.0547 c4.0234 0 8.4375 1.1914 8.4375 7.2461 l0 7.7734 z M328.4717234375 36.582 c2.6758 0 4.8242 -1.7773 4.8242 -5.7617 l-4.7656 1.3477 c-1.5625 0.37109 -2.6953 0.91797 -2.6953 2.2656 c0 1.4453 1.1914 2.1484 2.6367 2.1484 z"></path>
  </g>
</svg>